<?xml version="1.0" encoding="UTF-8"?><svg id="Layer_2" xmlns="http://www.w3.org/2000/svg" xmlns:xlink="http://www.w3.org/1999/xlink" viewBox="0 0 131.4 18.78"><defs><style>.cls-1{fill:url(#linear-gradient);stroke-width:0px;}</style><linearGradient id="linear-gradient" x1="30.1" y1="44.67" x2="99.58" y2="-24.81" gradientUnits="userSpaceOnUse"><stop offset="0" stop-color="#d724fd"/><stop offset="1" stop-color="#0bf4a7"/></linearGradient></defs><g id="Layer_1-2"><path class="cls-1" d="M3.76,5.78c-.64,0-1.33.31-1.79.98v-.67c0-.25-.49-.25-.98-.25s-.99,0-.99.25v8.41c0,.26.52.26,1.04.26s1.05,0,1.05-.26v-3.03c.44.63,1.08.9,1.67.9,1.59,0,2.65-1.48,2.65-3.3s-1.06-3.3-2.65-3.3ZM3.14,10.4c-.69,0-1.17-.59-1.17-1.33s.48-1.33,1.17-1.33,1.18.6,1.18,1.33-.48,1.33-1.18,1.33ZM10.37,5.78c-1.99,0-3.22,1.48-3.22,3.3s1.24,3.3,3.22,3.3,3.24-1.48,3.24-3.3-1.25-3.3-3.24-3.3ZM10.37,10.4c-.68,0-1.15-.59-1.15-1.33s.46-1.33,1.15-1.33,1.15.6,1.15,1.33-.46,1.33-1.15,1.33ZM24.18,6.07s0,.06-.02.09l-2.7,6.09c-.06.12-.21.12-.37.12s-.31,0-.37-.11l-1.64-3.21-1.63,3.21c-.07.11-.22.11-.37.11s-.31,0-.37-.12l-2.7-6.09s-.02-.07-.02-.1c0-.22.47-.22.95-.22.54,0,1.07,0,1.16.21l1.2,2.94,1.51-2.86c.06-.11.17-.11.28-.11.11,0,.21,0,.28.11l1.5,2.86,1.2-2.94c.08-.2.62-.21,1.16-.21.47,0,.95,0,.95.22ZM27.67,5.78c-1.86,0-3.11,1.41-3.11,3.27s1.18,3.33,3.08,3.33c.88,0,1.68-.18,2.45-.64.08-.04.1-.12.1-.22,0-.19-.09-.47-.2-.73-.12-.34-.26-.63-.44-.63-.03,0-.06,0-.09.02-.49.3-1,.44-1.58.44-.63,0-1.16-.38-1.25-.96h3.67c.19,0,.19-.28.19-.56,0-1.84-.88-3.3-2.83-3.3ZM26.61,8.46c.05-.46.42-.96,1.06-.96s.82.46.83.96h-1.89ZM35.98,6.17c.06.06.09.16.09.27,0,.22-.1.52-.18.77-.13.4-.32.81-.54.81-.04,0-.08-.01-.11-.04-.22-.12-.38-.16-.54-.16-.59,0-.86.52-.86,1.16v3.06c0,.25-.52.25-1.05.25s-1.04,0-1.04-.25v-5.93c0-.27.49-.27.98-.27s.98,0,.98.27v.55c.38-.61.83-.9,1.38-.9.31,0,.57.11.88.39ZM39.53,5.78c-1.86,0-3.11,1.41-3.11,3.27s1.18,3.33,3.08,3.33c.88,0,1.68-.18,2.45-.64.08-.04.1-.12.1-.22,0-.19-.09-.47-.2-.73-.12-.34-.26-.63-.44-.63-.03,0-.06,0-.09.02-.49.3-1,.44-1.58.44-.63,0-1.16-.38-1.25-.96h3.67c.19,0,.19-.28.19-.56,0-1.84-.88-3.3-2.83-3.3ZM38.47,8.46c.05-.46.42-.96,1.06-.96s.82.46.83.96h-1.89ZM48.44,2.86c-.52,0-1.04,0-1.04.26v3.56c-.44-.63-1.08-.9-1.67-.9-1.59,0-2.65,1.48-2.65,3.3s1.06,3.3,2.65,3.3c.64,0,1.33-.32,1.79-.98v.67c0,.25.49.25.98.25s.98,0,.98-.25V3.11c0-.26-.52-.26-1.04-.26ZM46.33,10.4c-.68,0-1.17-.59-1.17-1.33s.49-1.33,1.17-1.33,1.18.6,1.18,1.33-.49,1.33-1.18,1.33ZM57.53,5.78c-.59,0-1.24.27-1.67.9v-3.56c0-.26-.52-.26-1.03-.26s-1.05,0-1.05.26v8.95c0,.25.49.25.98.25s.98,0,.98-.25v-.67c.46.67,1.15.98,1.79.98,1.59,0,2.65-1.48,2.65-3.3s-1.06-3.3-2.65-3.3ZM56.92,10.4c-.7,0-1.18-.59-1.18-1.33s.48-1.33,1.17-1.33,1.18.6,1.18,1.33-.48,1.33-1.17,1.33ZM67.6,6.07s0,.05-.02.08l-2.67,6.89c-.52,1.39-1.71,1.69-2.72,1.71-.18,0-.34-.34-.44-.8-.06-.26-.1-.49-.1-.67s.04-.29.16-.3c.44-.05,1-.22,1.1-.51l.17-.44-2.49-5.89s-.02-.06-.02-.08c0-.23.49-.23.98-.23.54,0,1.09,0,1.17.21l1.37,3.58,1.28-3.59c.06-.21.63-.21,1.2-.21.51,0,1.02,0,1.02.23ZM100.16,10.38c0,1.59-1.32,2-2.93,2-.79,0-1.54-.13-2.17-.48-.08-.04-.11-.12-.11-.24,0-.19.09-.45.21-.73.16-.39.32-.71.53-.71.04,0,.08,0,.11.03.41.22,1.05.4,1.47.4.59,0,.79-.12.79-.37,0-.27-.38-.36-.83-.47-.85-.19-2.19-.47-2.19-1.99s1.13-2.04,2.71-2.04c.79,0,1.46.12,2.07.48.08.04.11.12.11.23,0,.18-.09.44-.21.72-.15.37-.35.72-.55.72-.03,0-.06,0-.09-.02-.38-.21-.85-.4-1.26-.4-.47,0-.69.14-.69.37s.35.32.81.42c.87.19,2.22.5,2.22,2.08ZM104.03,5.78c-1.99,0-3.22,1.48-3.22,3.3s1.24,3.3,3.22,3.3,3.24-1.48,3.24-3.3-1.25-3.3-3.24-3.3ZM104.03,10.4c-.68,0-1.15-.59-1.15-1.33s.46-1.33,1.15-1.33,1.15.6,1.15,1.33-.46,1.33-1.15,1.33ZM111.52,11.25c0,.49,0,.98-.22,1.02-.36.07-.73.11-1.08.11-1.21,0-1.78-.85-1.78-1.88V3.13c0-.26.52-.26,1.05-.26s1.05,0,1.05.26v6.9c0,.21.1.37.35.37.11,0,.22-.01.36-.05.02,0,.04,0,.06,0,.22,0,.22.45.22.9ZM114.92,5.78c-.85,0-1.59.21-2.45.67-.09.05-.13.14-.13.25,0,.17.09.4.19.65.15.36.33.7.51.7.02,0,.05,0,.07-.02.66-.35,1.21-.47,1.69-.47.39,0,.57.21.57.49v.31l-.91.17c-1.41.27-2.42.96-2.42,2.12s.78,1.72,1.75,1.72c.85,0,1.36-.34,1.72-.87v.55c0,.25.49.25.97.25s.96,0,.96-.25v-3.85c0-1.76-.97-2.43-2.55-2.43ZM115.39,9.98c0,.3-.26.67-.77.67-.28,0-.47-.17-.47-.4,0-.27.22-.46.5-.5l.73-.15v.39ZM124.95,8.41v3.64c0,.25-.52.25-1.05.25s-1.05,0-1.05-.25v-3.5c0-.43-.24-.81-.75-.81-.59,0-.92.45-.92.98v3.32c0,.25-.52.25-1.05.25s-1.04,0-1.04-.25v-5.95c0-.25.49-.25.98-.25s.98,0,.98.25v.67c.41-.56.93-1,1.71-1,1.3,0,2.17.99,2.17,2.64ZM128.85,5.78c-.85,0-1.59.21-2.45.67-.09.05-.13.14-.13.25,0,.17.09.4.19.65.15.36.33.7.51.7.02,0,.05,0,.07-.02.66-.35,1.21-.47,1.69-.47.39,0,.57.21.57.49v.31l-.91.17c-1.41.27-2.42.96-2.42,2.12s.78,1.72,1.75,1.72c.85,0,1.36-.34,1.72-.87v.55c0,.25.49.25.97.25s.96,0,.96-.25v-3.85c0-1.76-.97-2.43-2.55-2.43ZM129.32,9.98c0,.3-.25.67-.77.67-.28,0-.47-.17-.47-.4,0-.27.22-.46.5-.5l.73-.15v.39ZM81.26,0c-5.25,0-9.37,4.25-9.4,9.34-.02,5.19,4.18,9.44,9.39,9.44,5.18,0,9.39-4.19,9.4-9.37C90.66,4.22,86.45,0,81.26,0ZM81.22,16.44c-3.88-.02-7.01-3.16-7.02-7.05,0-3.94,3.21-7.06,7.07-7.05,3.87.01,7.02,3.16,7.02,7.05,0,3.87-3.14,7.07-7.08,7.05ZM76.81,7.41c-.15-.02-.23-.18-.15-.31.01-.03.03-.05.05-.07.36-.47.72-.95,1.07-1.42.07-.09.15-.13.26-.13,2.52,0,5.05,0,7.57,0,.1,0,.19.01.24.11.05.1.01.19-.05.27-.36.48-.72.95-1.08,1.43-.07.09-.15.13-.26.13-1.26,0-2.52,0-3.78,0s-2.51,0-3.76,0c-.04,0-.07,0-.11,0ZM85.85,11.68s-.03.05-.05.07c-.36.47-.72.95-1.07,1.42-.07.1-.15.13-.27.13-1.26,0-2.52,0-3.78,0s-2.51,0-3.76,0c-.03,0-.06,0-.09,0-.16-.01-.25-.17-.17-.31.01-.03.03-.05.05-.07.36-.47.71-.94,1.07-1.41.07-.09.15-.14.27-.14,2.52,0,5.04,0,7.56,0,.03,0,.06,0,.09,0,.15.02.23.18.16.31ZM76.7,8.79c-.05-.06-.08-.12-.06-.21.02-.09.08-.15.18-.16.03,0,.06,0,.1,0,2.51,0,5.03,0,7.54,0,.12,0,.21.04.28.14.36.48.72.95,1.08,1.43.03.04.06.08.07.14.01.12-.07.22-.2.23-.03,0-.06,0-.1,0h-3.75c-1.26,0-2.51,0-3.77,0-.13,0-.21-.04-.29-.14-.36-.48-.72-.95-1.08-1.43Z"/></g></svg>