<svg width="81" height="81" viewBox="0 0 81 81" fill="none" xmlns="http://www.w3.org/2000/svg">
<g clip-path="url(#clip0_0_32)">
<path d="M40.4995 80.9998C62.8668 80.9998 80.9991 62.8675 80.9991 40.5003C80.9991 18.133 62.8668 0.000732422 40.4995 0.000732422C18.1323 0.000732422 0 18.133 0 40.5003C0 62.8675 18.1323 80.9998 40.4995 80.9998Z" fill="#41B4E6"/>
<path d="M81 40.5004C81 39.5135 80.9628 38.5357 80.8935 37.5664L64.1083 20.7815L16.8917 39.3544L34.957 57.4199L35.194 58.2729L35.5008 57.9637L35.502 57.9649L35.194 58.2729L55.1778 78.2567C70.2893 72.3779 81 57.6908 81 40.5004Z" fill="#0091C8"/>
<path d="M36.5668 46.4009L54.8694 60.2195L64.1083 20.7815L16.8915 39.3544L31.259 44.1133L57.4801 26.5249L36.5668 46.4009Z" fill="white"/>
<path d="M31.259 44.1133L35.194 58.2731L36.5667 46.4009L57.4801 26.5249L31.259 44.1133Z" fill="#D2D2D7"/>
<path d="M42.5152 50.8919L35.194 58.2731L36.5668 46.4009L42.5152 50.8919Z" fill="#B9B9BE"/>
</g>
<defs>
<clipPath id="clip0_0_32">
<rect width="81" height="81" fill="white"/>
</clipPath>
</defs>
</svg>
