<svg width="512" height="512" viewBox="0 0 512 512" fill="none" xmlns="http://www.w3.org/2000/svg">
<g clip-path="url(#clip0_16_14)">
<path d="M256 0C114.615 0 0 114.615 0 256C0 397.385 114.615 512 256 512C397.385 512 512 397.385 512 256C512 114.615 397.385 0 256 0ZM410.805 187.73C410.925 190.752 410.988 193.78 410.988 196.823C410.988 306.179 327.774 419.29 188.521 419.29C146.026 419.313 104.42 407.117 68.663 384.155C68.3006 383.924 68.0278 383.577 67.8897 383.17C67.7516 382.763 67.7564 382.322 67.9035 381.918C68.0509 381.516 68.3286 381.176 68.6923 380.951C69.0559 380.726 69.4846 380.629 69.9096 380.677C75.9227 381.394 82.0719 381.75 88.174 381.75C121.293 381.75 152.647 371.51 179.166 352.083C163.54 350.766 148.654 344.851 136.385 335.084C124.117 325.316 115.016 312.134 110.231 297.201C110.13 296.888 110.113 296.554 110.18 296.231C110.247 295.909 110.396 295.61 110.613 295.362C110.832 295.118 111.111 294.934 111.422 294.829C111.733 294.723 112.066 294.7 112.389 294.76C121.099 296.421 130.033 296.548 138.787 295.137C106.004 284.95 82.9623 254.24 82.9623 219.277L82.9728 218.261C82.9799 217.935 83.071 217.616 83.2375 217.335C83.4039 217.055 83.6399 216.822 83.9228 216.659C84.2056 216.496 84.5257 216.409 84.8521 216.406C85.1784 216.404 85.4999 216.485 85.7855 216.643C94.3583 221.391 103.769 224.434 113.499 225.605C104.16 218.166 96.6209 208.716 91.4433 197.958C86.2657 187.2 83.5833 175.412 83.5961 163.473C83.5961 149.425 87.315 135.618 94.3547 123.545C94.5084 123.281 94.7242 123.058 94.9833 122.895C95.2425 122.733 95.5372 122.636 95.8422 122.613C96.1481 122.585 96.4562 122.634 96.7387 122.754C97.0212 122.875 97.2693 123.064 97.4607 123.304C136.022 170.602 192.742 199.725 253.397 203.47C252.379 198.32 251.869 193.084 251.873 187.835C251.873 144.041 287.5 108.418 331.289 108.418C352.816 108.418 373.621 117.265 388.533 132.727C405.32 129.309 421.414 123.098 436.145 114.353C436.476 114.157 436.859 114.067 437.242 114.093C437.625 114.119 437.992 114.261 438.293 114.499C438.901 114.992 439.152 115.809 438.911 116.563C433.895 132.216 424.14 145.923 410.993 155.789C423.319 153.651 435.336 150.006 446.773 144.937C447.149 144.766 447.571 144.722 447.974 144.814C448.377 144.905 448.739 145.126 449.005 145.443C449.27 145.759 449.425 146.154 449.444 146.567C449.464 146.98 449.348 147.388 449.114 147.728C438.795 163.21 425.826 176.751 410.805 187.73Z" fill="white"/>
</g>
<defs>
<clipPath id="clip0_16_14">
<rect width="512" height="512" fill="white"/>
</clipPath>
</defs>
</svg>
